<?xml version="1.0" encoding="UTF-8"?>
<svg xmlns="http://www.w3.org/2000/svg" width="500" height="420" viewBox="0 0 500 420">
<rect width="100%" height="100%" fill="#fafafa"/>
<text x="250.0" y="35" text-anchor="middle" font-family="system-ui,sans-serif" font-size="20" font-weight="bold" fill="#333">3DGS应用领域分布</text>
<path d="M 200,210 L 200.0,60.0 A 150,150 0 0,1 329.9038105676658,135.0 Z" fill="#1e88e5" stroke="#fff" stroke-width="2"/>
<text x="248.8" y="125.6" text-anchor="middle" font-family="system-ui,sans-serif" font-size="12" font-weight="bold" fill="#fff">16.7%</text>
<path d="M 200,210 L 329.9038105676658,135.0 A 150,150 0 0,1 306.06601717798213,316.06601717798213 Z" fill="#42a5f5" stroke="#fff" stroke-width="2"/>
<text x="296.7" y="222.7" text-anchor="middle" font-family="system-ui,sans-serif" font-size="12" font-weight="bold" fill="#fff">20.8%</text>
<path d="M 200,210 L 306.06601717798213,316.06601717798213 A 150,150 0 0,1 161.1771432346219,354.88887394336024 Z" fill="#64b5f6" stroke="#fff" stroke-width="2"/>
<text x="225.2" y="304.2" text-anchor="middle" font-family="system-ui,sans-serif" font-size="12" font-weight="bold" fill="#fff">16.7%</text>
<path d="M 200,210 L 161.1771432346219,354.88887394336024 A 150,150 0 0,1 70.09618943233423,285.00000000000006 Z" fill="#90caf9" stroke="#fff" stroke-width="2"/>
<text x="140.6" y="287.4" text-anchor="middle" font-family="system-ui,sans-serif" font-size="12" font-weight="bold" fill="#fff">12.5%</text>
<path d="M 200,210 L 70.09618943233423,285.00000000000006 A 150,150 0 0,1 50.0,210.00000000000009 Z" fill="#bbdefb" stroke="#fff" stroke-width="2"/>
<text x="105.8" y="235.2" text-anchor="middle" font-family="system-ui,sans-serif" font-size="12" font-weight="bold" fill="#fff">8.3%</text>
<path d="M 200,210 L 50.0,210.00000000000009 A 150,150 0 0,1 70.09618943233414,135.00000000000009 Z" fill="#1565c0" stroke="#fff" stroke-width="2"/>
<text x="105.8" y="184.8" text-anchor="middle" font-family="system-ui,sans-serif" font-size="12" font-weight="bold" fill="#fff">8.3%</text>
<path d="M 200,210 L 70.09618943233414,135.00000000000009 A 150,150 0 0,1 124.99999999999993,80.09618943233426 Z" fill="#0d47a1" stroke="#fff" stroke-width="2"/>
<text x="131.1" y="141.1" text-anchor="middle" font-family="system-ui,sans-serif" font-size="12" font-weight="bold" fill="#fff">8.3%</text>
<path d="M 200,210 L 124.99999999999993,80.09618943233426 A 150,150 0 0,1 199.99999999999997,60.0 Z" fill="#82b1ff" stroke="#fff" stroke-width="2"/>
<text x="174.8" y="115.8" text-anchor="middle" font-family="system-ui,sans-serif" font-size="12" font-weight="bold" fill="#fff">8.3%</text>
<rect x="380" y="80" width="14" height="14" fill="#1e88e5" rx="2"/>
<text x="400" y="92" font-family="system-ui,sans-serif" font-size="12" fill="#555">社交媒体内容创作 (16.7%)</text>
<rect x="380" y="105" width="14" height="14" fill="#42a5f5" rx="2"/>
<text x="400" y="117" font-family="system-ui,sans-serif" font-size="12" fill="#555">VR/AR应用 (20.8%)</text>
<rect x="380" y="130" width="14" height="14" fill="#64b5f6" rx="2"/>
<text x="400" y="142" font-family="system-ui,sans-serif" font-size="12" fill="#555">电商零售 (16.7%)</text>
<rect x="380" y="155" width="14" height="14" fill="#90caf9" rx="2"/>
<text x="400" y="167" font-family="system-ui,sans-serif" font-size="12" fill="#555">游戏娱乐 (12.5%)</text>
<rect x="380" y="180" width="14" height="14" fill="#bbdefb" rx="2"/>
<text x="400" y="192" font-family="system-ui,sans-serif" font-size="12" fill="#555">教育培训 (8.3%)</text>
<rect x="380" y="205" width="14" height="14" fill="#1565c0" rx="2"/>
<text x="400" y="217" font-family="system-ui,sans-serif" font-size="12" fill="#555">医疗健康 (8.3%)</text>
<rect x="380" y="230" width="14" height="14" fill="#0d47a1" rx="2"/>
<text x="400" y="242" font-family="system-ui,sans-serif" font-size="12" fill="#555">建筑设计 (8.3%)</text>
<rect x="380" y="255" width="14" height="14" fill="#82b1ff" rx="2"/>
<text x="400" y="267" font-family="system-ui,sans-serif" font-size="12" fill="#555">其他应用 (8.3%)</text>
</svg>