<?xml version="1.0" encoding="UTF-8"?>
<svg xmlns="http://www.w3.org/2000/svg" width="410" height="440" viewBox="0 0 410 440">
<rect width="100%" height="100%" fill="#fafafa"/>
<text x="205.0" y="35" text-anchor="middle" font-family="system-ui,sans-serif" font-size="20" font-weight="bold" fill="#333">3DGS技术对比</text>
<line x1="120" y1="360.0" x2="350" y2="360.0" stroke="#ddd" stroke-width="1"/>
<text x="112" y="364.0" text-anchor="end" font-family="system-ui,sans-serif" font-size="12" fill="#666">0</text>
<line x1="120" y1="300.0" x2="350" y2="300.0" stroke="#ddd" stroke-width="1"/>
<text x="112" y="304.0" text-anchor="end" font-family="system-ui,sans-serif" font-size="12" fill="#666">2</text>
<line x1="120" y1="240.0" x2="350" y2="240.0" stroke="#ddd" stroke-width="1"/>
<text x="112" y="244.0" text-anchor="end" font-family="system-ui,sans-serif" font-size="12" fill="#666">4</text>
<line x1="120" y1="180.0" x2="350" y2="180.0" stroke="#ddd" stroke-width="1"/>
<text x="112" y="184.0" text-anchor="end" font-family="system-ui,sans-serif" font-size="12" fill="#666">6</text>
<line x1="120" y1="120.0" x2="350" y2="120.0" stroke="#ddd" stroke-width="1"/>
<text x="112" y="124.0" text-anchor="end" font-family="system-ui,sans-serif" font-size="12" fill="#666">8</text>
<line x1="120" y1="60.0" x2="350" y2="60.0" stroke="#ddd" stroke-width="1"/>
<text x="112" y="64.0" text-anchor="end" font-family="system-ui,sans-serif" font-size="12" fill="#666">10</text>
<line x1="120" y1="60" x2="120" y2="360" stroke="#999" stroke-width="1.5"/>
<line x1="120" y1="360" x2="350" y2="360" stroke="#999" stroke-width="1.5"/>
<rect x="140" y="150.0" width="50" height="210.0" fill="#1e88e5" rx="3"/>
<text x="165.0" y="144.0" text-anchor="middle" font-family="system-ui,sans-serif" font-size="12" fill="#333">7</text>
<text x="165.0" y="380" text-anchor="middle" font-family="system-ui,sans-serif" font-size="12" fill="#555">传统NeRF</text>
<rect x="210" y="90.0" width="50" height="270.0" fill="#42a5f5" rx="3"/>
<text x="235.0" y="84.0" text-anchor="middle" font-family="system-ui,sans-serif" font-size="12" fill="#333">9</text>
<text x="235.0" y="380" text-anchor="middle" font-family="system-ui,sans-serif" font-size="12" fill="#555">3DGS</text>
<rect x="280" y="60.0" width="50" height="300.0" fill="#64b5f6" rx="3"/>
<text x="305.0" y="54.0" text-anchor="middle" font-family="system-ui,sans-serif" font-size="12" fill="#333">10</text>
<text x="305.0" y="380" text-anchor="middle" font-family="system-ui,sans-serif" font-size="12" fill="#555">上海AI Lab优化</text>
</svg>