<?xml version="1.0" encoding="UTF-8"?>
<svg xmlns="http://www.w3.org/2000/svg" width="470" height="420" viewBox="0 0 470 420">
<rect width="100%" height="100%" fill="#fafafa"/>
<text x="235.0" y="35" text-anchor="middle" font-family="system-ui,sans-serif" font-size="20" font-weight="bold" fill="#333">3DGS发展趋势</text>
<line x1="80" y1="340.0" x2="430" y2="340.0" stroke="#eee" stroke-width="1"/>
<text x="72" y="344.0" text-anchor="end" font-family="system-ui,sans-serif" font-size="11" fill="#888">4</text>
<line x1="80" y1="284.0" x2="430" y2="284.0" stroke="#eee" stroke-width="1"/>
<text x="72" y="288.0" text-anchor="end" font-family="system-ui,sans-serif" font-size="11" fill="#888">5</text>
<line x1="80" y1="228.0" x2="430" y2="228.0" stroke="#eee" stroke-width="1"/>
<text x="72" y="232.0" text-anchor="end" font-family="system-ui,sans-serif" font-size="11" fill="#888">6</text>
<line x1="80" y1="172.0" x2="430" y2="172.0" stroke="#eee" stroke-width="1"/>
<text x="72" y="176.0" text-anchor="end" font-family="system-ui,sans-serif" font-size="11" fill="#888">7</text>
<line x1="80" y1="116.0" x2="430" y2="116.0" stroke="#eee" stroke-width="1"/>
<text x="72" y="120.0" text-anchor="end" font-family="system-ui,sans-serif" font-size="11" fill="#888">8</text>
<line x1="80" y1="60.0" x2="430" y2="60.0" stroke="#eee" stroke-width="1"/>
<text x="72" y="64.0" text-anchor="end" font-family="system-ui,sans-serif" font-size="11" fill="#888">9</text>
<line x1="80" y1="60" x2="80" y2="340" stroke="#999" stroke-width="1.5"/>
<line x1="80" y1="340" x2="430" y2="340" stroke="#999" stroke-width="1.5"/>
<polygon points="80.0,340.0 167.5,228.0 255.0,172.0 342.5,116.0 430.0,60.0 430.0,340.0 80.0,340.0" fill="#1e88e5" opacity="0.1"/>
<polyline points="80.0,340.0 167.5,228.0 255.0,172.0 342.5,116.0 430.0,60.0" fill="none" stroke="#1e88e5" stroke-width="2.5" stroke-linejoin="round"/>
<circle cx="80.0" cy="340.0" r="4" fill="#1e88e5" stroke="#fff" stroke-width="2"/>
<text x="80.0" y="330.0" text-anchor="middle" font-family="system-ui,sans-serif" font-size="11" fill="#333">4</text>
<text x="80.0" y="360" text-anchor="middle" font-family="system-ui,sans-serif" font-size="11" fill="#666">2024年</text>
<circle cx="167.5" cy="228.0" r="4" fill="#1e88e5" stroke="#fff" stroke-width="2"/>
<text x="167.5" y="218.0" text-anchor="middle" font-family="system-ui,sans-serif" font-size="11" fill="#333">6</text>
<text x="167.5" y="360" text-anchor="middle" font-family="system-ui,sans-serif" font-size="11" fill="#666">2025年</text>
<circle cx="255.0" cy="172.0" r="4" fill="#1e88e5" stroke="#fff" stroke-width="2"/>
<text x="255.0" y="162.0" text-anchor="middle" font-family="system-ui,sans-serif" font-size="11" fill="#333">7</text>
<text x="255.0" y="360" text-anchor="middle" font-family="system-ui,sans-serif" font-size="11" fill="#666">2026年</text>
<circle cx="342.5" cy="116.0" r="4" fill="#1e88e5" stroke="#fff" stroke-width="2"/>
<text x="342.5" y="106.0" text-anchor="middle" font-family="system-ui,sans-serif" font-size="11" fill="#333">8</text>
<text x="342.5" y="360" text-anchor="middle" font-family="system-ui,sans-serif" font-size="11" fill="#666">2027年</text>
<circle cx="430.0" cy="60.0" r="4" fill="#1e88e5" stroke="#fff" stroke-width="2"/>
<text x="430.0" y="50.0" text-anchor="middle" font-family="system-ui,sans-serif" font-size="11" fill="#333">9</text>
<text x="430.0" y="360" text-anchor="middle" font-family="system-ui,sans-serif" font-size="11" fill="#666">2028年</text>
</svg>